<svg class="patterns-container" xmlns="http://www.w3.org/2000/svg">
  <pattern id="hachure" x="0" y="0" width="60" height="60" patternUnits="userSpaceOnUse">
  <path style="stroke-opacity: 0.7; stroke-width: 0.4; fill: none;" d="M60 60C60 60 60 60 60 60M60 60C60 60 60 60 60 60M59.1 48.6C57.7 52.8 55.5 57 55 61.1M59.8 49.3C59.1 52.5 57.2 55.9 54.6 59.7M59.2 40.5C56.8 45.4 52.6 49.7 47.8 58.9M59.7 40.7C56.1 46.5 52.4 52 48 60.6M61.1 28.5C57.4 37.6 52.9 46.3 41.8 58.7M60.7 29.9C55.3 36.2 52.3 43.8 43.2 60.3M59 21.3C52.4 33.4 45.5 42.7 36.6 61.7M60.5 19.6C52.8 32.2 45.8 45.1 36.6 59.6M59.8 8.6C54.8 20.1 47 28.5 30.1 57.7M60.7 11C51.8 25.5 43.1 40.5 32.3 58.8M59.1 0.1C50.4 17.5 38.8 40.1 23.5 60.4M60.1 0.3C53 14 46 26.2 25 59.1M54.2 -2.7C44.9 16.4 30.7 38.2 19.8 59.4M55.9 -2.8C46.6 13.7 37.8 30.2 20.4 60.7M50.1 -0.9C36.9 15.8 27 35.1 12.5 59.7M49.6 -2.3C40.9 12.8 32.5 28.1 14.4 60.9M43.4 -4.3C36.1 13 25.3 28.7 9 59.2M44.1 -3.1C32 18.2 19.2 40.1 7.4 60.5M38.2 -3.8C28.1 14.3 17.3 33.9 0.8 59.2M37.7 -1.4C28.5 15 19.4 31.2 1.4 59.3M33.4 -3.3C19.7 18.2 9.9 39.8 -1.7 56.8M32.9 -2.5C19.8 19 8.6 40.2 -2.1 58.1M26.7 -3.1C16 18.5 2.9 35.1 -0.5 47.3M26.1 -2.7C16.6 15.6 5.4 33.1 -2.1 48.1M21 -3.4C15.1 6.6 10.6 20.2 -4.2 37.6M21.1 -2.9C11.4 12.9 2.1 29.9 -2.8 38.6M16.8 -1.8C10.6 7.8 4.3 20 -2.2 28.7M16.2 -2C11.5 3.4 7.4 11 -2.7 27.8M8.4 -0.8C8.1 3.4 1.4 8.2 -2.1 17.3M10.1 -3.4C6.2 4 1.2 10.1 -2.5 17.9M3.1 -2.9C1.9 2.6 -2.3 6.7 -3.2 8.7M3.1 -2C2 2.1 -1.1 5.3 -3.4 9.3" />
</pattern>
<pattern id="zigzag" x="0" y="0" width="60" height="60" patternUnits="userSpaceOnUse">
  <path style="stroke-opacity: 0.7; stroke-width: 0.4; fill: none;" d="M0 0C0 0 0 0 0 0M0 0C0 0 0 0 0 0M0 12.5C3 9.7 4.9 7.7 9.1 -0.5M0.6 12.2C4.2 7.5 7 4 9.9 -0.3M1.7 25.2C7.2 17.3 11.8 12.8 20.9 0.8M-0.5 23.5C7.7 15.1 15.6 7.6 22.1 -0.7M1.6 38.8C9.5 24.7 20.6 14 33.2 0.9M-0.2 37.1C9.7 24.9 19.4 15.1 32.4 -0.4M0.1 48.8C16 30.3 28.3 15.2 42.3 -0.6M-0.9 48.7C13.2 34.6 26.8 18.2 42.9 0.7M0.4 59C15.2 46.9 27.4 30.9 51.2 0.7M0 59.9C16 42.8 31.1 27 53.7 -0.1M13.3 61.1C23.3 46.2 35.1 32 61.3 3.2M10.4 60.9C29.6 39.3 45.9 19.1 62.1 1.4M21 62.1C31.4 48.9 41.4 39.1 60 15.8M22 59.3C36 46.2 48.6 29.6 62.9 13.9M32.5 58.9C37 50.8 44.4 45.4 63.1 24.2M32.4 59.9C44.1 47.4 54.2 34.3 61.8 25.3M43.3 60.3C49.1 53.8 53.3 49.8 64.2 39.1M43.8 60.1C49.2 52.6 54.4 47.1 62.6 39.2M54 61.5C54.7 56.6 60 54.6 61.2 49.9M52.8 61.1C56.1 58.1 57.9 54.8 62.2 49.9M-1.2 25.2C4.3 16.1 4 10.5 11.9 0.4M1 23.9C3.4 15.9 7.6 8 10.6 -0.7M-0.1 35C6.4 27.8 11.4 18 22.6 -0.1M-0.9 36C6.9 23.8 15.5 10.8 21.8 -0.7M-0.3 48.2C5.8 39.9 13.1 28 30.5 -1.4M0.6 48.4C6.8 37.3 14.6 27.2 31.1 0.4M0.6 59.1C13.2 40.5 26.8 21.1 44.4 1.4M0.9 60.5C9 47 17.6 34.4 41.5 -0.5M11.2 59C21.7 44.5 34.6 25.6 54.9 1.5M11.9 60C28.7 36 43.8 12.4 52.4 0.7M21.5 60.2C31.6 46.7 40.7 33.3 61.8 1.7M21.3 61.1C33.7 41.8 46.5 22.4 62.2 2.5M33.6 60.7C40.4 50.9 45 40.2 63.8 15.7M32.1 59.7C41.9 45.1 50.5 29.9 62.4 14.7M43.7 60.9C50 46.9 59.4 32.5 62.4 24.1M42.6 60.4C47.4 51.5 53 42.3 62.4 25.2M51.2 61.2C58.4 51.6 59.3 43.2 60.9 38.4M53.2 61.2C56 51.8 60.2 43.5 62.1 38" />
</pattern>
<pattern id="cross-hatch" x="0" y="0" width="60" height="60" patternUnits="userSpaceOnUse">
  <path style="stroke-opacity: 0.7; stroke-width: 0.4; fill: none;" d="M0 0C0 0 0 0 0 0M0 0C0 0 0 0 0 0M0.7 12.6C1.4 8.3 3.2 6.7 9.7 -1.2M0.6 12.7C2 9.9 4.8 6.5 11.3 0.2M-0.3 25.8C4.4 19.8 8.6 14.1 20.5 -1.7M-0.7 23.1C4.9 19.7 9.1 13 22.1 -0.8M1.6 37C10.8 23.1 20.3 11.8 32.4 0.4M-0.6 36.8C6.5 27 15.1 18 31.9 -0.5M1.3 50.4C8.7 37.8 21.3 27.2 41.5 -1.8M0.7 48.4C8.7 36.6 18.6 26.1 41.6 0.8M-0.8 58.3C12.8 45.3 25.7 33.5 54.2 0.1M1.2 60.4C18 40.3 36.5 19.5 52.3 -0.6M10 58.6C30.7 39.3 47.2 20.3 60.3 2.8M11.5 59.4C28.3 42.2 44.3 23.1 62.8 2.6M21.9 60.7C28.5 49.1 37.3 40.3 61.6 12.2M21.3 59.3C36.8 43.6 50.3 28.1 61.4 13.4M34.2 60.9C39.2 48.9 50.5 42 63.3 26.9M32.9 60.9C41.2 50.4 49.7 40.7 62.2 25.2M42.8 60.2C50.5 51.6 56.7 47 62.4 36.7M42.7 61C49.4 53.5 55 45.3 61.9 37.5M53.6 59.5C57.2 57.3 58.7 53.3 62.2 50.9M52.9 60.5C54.8 58.1 58 56.4 61.7 50.4M-0.3 59.8C-0.3 59.8 -0.3 59.8 -0.3 59.8M-0.3 59.8C-0.3 59.8 -0.3 59.8 -0.3 59.8M12.1 61.2C8.7 57.9 6.3 54.4 0.8 48.7M13.1 60.7C10.4 57.7 6.8 54.4 0.5 48.4M25 61C19 57.1 14.9 50.7 0.4 40M24.1 60.1C17.7 53.9 12.1 48.6 -1.1 39.1M36.2 61.8C27.4 55.2 20.7 46 1.1 28.7M35.7 59.3C23 47.6 8.6 36 1.4 28.2M48.9 59C31.8 46.3 17.6 34.4 -0.9 18.7M49.1 60.1C31.8 45.9 15 30.9 -0.3 18.8M62.1 59.3C41.5 43.6 21 23.6 0.2 6.1M60.9 59.2C38.3 40 15 20.1 1.3 7.7M60.5 47.1C49.9 37 35.5 26.3 0.4 -3.2M61.3 48.2C46.5 36.1 32 23.7 2.2 -1.6M58.9 39C45.4 25.7 28.6 12.2 15.6 -2.9M61.4 38.3C46.2 26.9 32.2 14.8 14.7 -2.7M59.8 28.9C50.5 21.4 43 13.9 24.5 -3.1M60.6 28.1C47.4 17.4 34.7 5.8 25.1 -1.4M61.6 16.6C55.2 10.5 45.9 7.2 38.1 -3.1M60.1 16.4C55 12 48.4 6.2 39.5 -1.1M59.7 7.7C58.7 3 53.7 1.4 51.8 -0.6M60 6.1C58.9 5.2 55.6 2.2 51.3 -1.4" />
</pattern>
<pattern id="dashed" x="0" y="0" width="60" height="60" patternUnits="userSpaceOnUse">
  <path style="stroke-opacity: 0.7; stroke-width: 0.4; fill: none;" d="M1.8 6.9C3.7 5 4.7 3.4 6.1 2.4M1.8 6.7C2.7 5.8 4.2 4.5 5.9 2.3M1.6 15.6C2.7 15.2 4.3 14 6.1 12.2M1.8 16.5C3.4 14.8 5 13 6 11.7M10.1 6.6C10.5 5.7 12.6 4.4 13.4 2.3M9.8 7.2C10.7 5.8 12.1 4.7 13.9 2.4M2.4 25.1C3.3 23.5 4.3 22.7 6.6 20.4M2.2 24.8C3.7 23.4 4.4 22.2 5.8 20.4M10.3 16.4C10.7 15.1 12.6 12.9 14 11.2M9.8 16.3C10.8 15 11.8 14.2 14.1 11.4M17.6 7.2C19 4.9 20.9 3.7 21.5 2.7M17.9 7C19.1 5.5 20.5 4 21.7 2.6M1.6 34.4C3.1 33.3 3.9 31.8 6.2 29.7M2.2 34.1C3.3 33 4.3 31.7 6 29.9M9.5 24.8C10.8 24.3 11.6 22.8 13.5 20.6M10 25.3C11 23.9 11.5 23 14.1 20.7M17.3 16.4C18.5 14.8 20.5 13.2 21.4 11.5M17.9 16.2C19.3 14.6 20.5 12.9 21.7 11.3M26.2 6.8C27.1 5.5 27 5.5 30 2.6M25.7 6.8C27.3 5.5 28.4 3.7 29.5 2.3M1.5 43.1C3.2 42.1 4.4 40.5 6.4 38.8M2.1 43.4C2.8 42.5 4 41.6 6.1 39M10.3 34.9C11.5 32.4 12.6 31.4 13.2 30.2M9.7 34.4C10.7 33.5 11.4 32.2 13.7 30M18.3 25.5C18.7 23.5 19.7 22.2 22.2 21.2M17.6 25.6C18.7 24.1 19.4 23.2 21.6 20.6M25.5 15.9C26.4 15.2 27.8 13.1 29.6 11.4M25.7 16.5C27 14.9 28 13.5 29.7 12M33.3 7C34.5 5.7 35.9 4.1 37.4 2.1M33.7 7.2C34.1 6.3 35.4 5.2 37.3 2.5M1.9 52.4C4.2 51 5.6 48.7 6.3 47.5M2 52.5C3.5 50.5 5.1 49 6.3 47.7M10.1 43.1C11.6 41.3 12.1 40.6 14.1 38.9M10 43.3C11.2 42.3 12.4 41 14.2 38.9M18.3 34.2C19.4 33.3 20.2 30.9 21.6 29.3M17.8 34C19.5 32.5 20.8 30.5 22 29.8M25.5 25.4C27 23.8 29 21.2 30.3 20.8M26 25.3C27 23.5 28.4 21.8 29.5 20.5M34.1 16.6C34.3 14.8 35 14 37.8 12.1M34 15.9C35 14.9 35.6 14.1 37.7 11.2M42 7.3C43.2 5.1 44.6 3.9 46 2.4M41.8 7C43.2 5.1 44.5 3.6 45.6 2.4M7.2 55.1C8.5 54.1 10.2 52.1 11.9 51.1M7.5 55.7C8.8 53.9 9.7 52.7 11.5 50.7M15.2 46.2C16.6 45.7 17.8 43.9 18.8 41.7M15.4 46.6C17 44.8 18.3 42.8 19.2 41.7M23.5 36.9C24.4 35.7 25.5 34.6 27.3 33.2M23.4 37.6C24 36.1 25.4 34.6 27.2 32.9M31 28.1C32.5 27.7 32.8 26.2 35.2 24.1M30.8 28.4C32.4 27.1 33.5 25.4 34.9 23.9M39.4 19.1C40.3 18.2 41.1 16.7 42.8 14.2M38.8 19.2C40.2 17.3 42.2 15.5 42.7 14.4M46.7 10.3C48.1 9 49.2 6.5 50.9 5.8M46.6 10.1C47.9 9.2 48.9 8 51 5.8M14.2 56.7C16.1 55 16.6 53.7 18.3 52.3M14.3 56.8C15.9 55.3 17.2 53.5 18.1 52.1M22.2 47.6C24 46.4 25.3 43.7 26.2 43.5M21.8 47.7C23.1 46.6 24.5 45 26 43.4M29.6 38.2C31.4 37.9 31.8 36.3 34.5 34.7M29.7 38.4C31 37 32.6 35.6 33.8 34M37.3 30.1C38.9 27.5 41.3 25.9 42.3 24.9M37.6 29.7C38.8 28.5 40.2 26.9 41.7 25.3M46.2 20.9C47.6 19.1 48.2 16.7 49.2 15.7M45.5 20.5C46.7 19.2 48.4 17.8 49.7 16M53.7 11.8C54.2 10 55.2 10.1 57.9 7M53.8 11.5C55.1 9.8 56.6 7.9 57.3 6.8M21.5 57.4C23.7 55.3 24.1 54.4 26.5 52.5M22.3 56.7C23.6 55 25 53.7 25.7 52.4M30.1 47.6C31.5 45.7 33.5 44.8 34.1 43.4M30.1 47.7C30.8 46.3 31.9 45.3 34.1 43.5M37.2 39.2C39.5 37.8 40.2 36.2 42.2 33.9M38.1 39C38.8 37.7 39.5 36.8 41.9 34M45.8 30.1C46.8 28.2 48.8 26.1 49.5 25.1M45.8 29.7C46.9 27.9 49 26.5 49.4 25M53.2 20.5C54.9 20.1 55.3 18.8 57.1 16.4M53.3 21C54.9 19.3 55.9 17.9 57.6 16.4M30.2 56.3C31.6 55.6 31.6 54.5 34 52.5M30.3 56.5C30.9 55.6 32.2 54.5 34 51.9M38 47.3C39.5 46.8 40.6 45.6 41.8 43.3M37.8 47.4C38.9 46.6 40 45.1 41.9 43.1M45.8 38.5C47 37.6 49.1 36.2 49.8 33.6M46 38.6C47.1 37 48.2 36.2 49.6 34.1M53.3 29.8C54.6 28.9 56.1 27.1 57.2 25.5M53.6 29.6C55.3 28.1 56.1 26.4 57.8 24.8M38.4 56.8C39.1 55.4 41.3 53 41.9 51.5M38.4 56.4C39.2 55.5 40 54.7 42.6 52.1M46.4 47.5C47.6 45.5 49.6 44.5 50.5 43.1M46.2 47.5C47.2 46.5 48 45 50.2 43.1M53.9 38.2C55.3 36.4 56.8 35.1 57.5 34.2M53.8 38.6C55.8 36.8 57.3 34.7 57.8 33.8M46.6 56.7C47.2 55.3 49.5 53 49.6 52.6M46.4 56.4C47.8 54.9 49 53.1 50 52M54.4 47.5C54.5 46.6 56.4 45.1 58 43.3M53.8 47.4C55.1 46.8 55.7 45.7 58 43.3M54 57.1C55.8 55.7 56.8 54.2 57.7 52.1M53.7 56.8C55.2 55.6 56.2 54.2 57.8 52.6" />
</pattern>
</svg>