<svg class="patterns-container" xmlns="http://www.w3.org/2000/svg">
  <pattern id="hachure" x="0" y="0" width="60" height="60" patternUnits="userSpaceOnUse">
  <path fill="none" d="M60 60C60 60 60 60 60 60M60 60C60 60 60 60 60 60M59.5 49.8C58.4 53 55.5 56.4 54.8 60.8M60.5 49.7C58.9 52.1 56.7 55.5 53.8 59.7M61.6 38.5C56.2 48.2 51.8 52.9 47.5 60.3M60.6 40C56.8 45.1 54.8 49.4 47.3 59.4M59.6 31.5C53.9 40.6 46.5 54.2 41.3 58.4M59.2 29.8C55.2 37.9 50.2 47.8 43.1 59.4M59 20C53.6 33.5 42.1 48.8 35.7 60.7M61.1 18.8C53.6 32.5 46.5 45.1 37.3 60.4M58.4 10.3C50.3 25.2 40.7 42.7 30.8 59.2M59.3 10.7C50.7 25.4 42.2 39.2 30.5 59.6M61.9 -1.5C49.9 17.1 40.5 36.1 24.4 59M60.2 -0.3C50.2 18.1 38.5 36.5 25.2 59.1M57.6 -0.9C45.9 16.2 34 34.4 17.7 59.7M54.7 -2.4C42.5 19.4 30.2 41.8 20.4 60.7M49.6 -0.7C36.2 19.6 23.5 42.7 15.1 58M49.2 -2C35 22 23.1 43.5 13.2 60M43.1 -0.5C33.1 20.3 19.5 41.9 6.5 58.2M43.6 -2.1C35.7 11.5 28.4 23 7.5 59.2M38.8 -2C24 18.4 14.3 37 1.8 59.6M38.3 -2.4C29.3 13.7 21.2 27.6 1.7 60.4M32.2 -0.6C23 16.4 9.6 35.9 -3.2 58.1M31.6 -2.4C19.2 20.2 8.3 42.2 -2.2 58.7M27 -2.1C17.7 16.3 9.1 29.7 -1.8 49.4M26.6 -3.8C21.7 6.2 14.8 16.9 -1.7 47.5M21.9 -1.5C16.9 4.3 10 15.3 -2.5 36.8M21.3 -2.9C12.4 12.9 4.3 27.5 -1.9 38.2M14.4 -3.4C11.2 4.7 7.7 14 -1.7 27.6M15.1 -3.2C9.5 9.6 1.2 19.9 -2.3 27.8M9.8 -1C6.9 1.6 3.2 7.1 -3.2 18.7M8.8 -1.9C5.2 4.1 1.7 10.1 -3.5 18M4.2 -2C1.6 1.3 -0.4 3.1 -1.8 9.3M3.6 -2.1C1.5 0.7 -0.4 3.1 -2.7 8.5" />
</pattern>
<pattern id="zigzag" x="0" y="0" width="60" height="60" patternUnits="userSpaceOnUse">
  <path fill="none" d="M0 0C0 0 0 0 0 0M0 0C0 0 0 0 0 0M-0.7 10.6C2.6 8 5 7.8 9.9 -0.8M-0.1 12.1C1.7 9.1 5 6.6 10.9 -0.7M-0.6 25.2C7.4 16.4 13.1 8.3 19.7 -1.2M-0.3 23.7C5.3 17.4 9.2 13.5 21 0.1M-1.7 36.3C9.3 26 16.8 17.3 31.4 -0.4M-0.8 36.4C6.4 27.3 14.7 19.3 32.7 -0.3M0 48.9C9.9 38.1 21.9 25.3 41.6 -1.2M0 49.1C9 38.8 17.5 27.8 42.5 0.8M2.6 60.6C21 35.2 42.8 12 51.3 0.6M0.8 60.7C18.2 40.2 35.1 21.2 52.2 -1.2M9.6 59.8C23.9 45 33.6 34.5 61.1 3M11.5 59.5C28.3 41.6 44.7 23.2 61.3 2.3M20.2 59.8C35.6 44 50.8 24.9 60.3 13M21.8 60.1C29.7 49.4 38.5 39.7 61.3 14.9M30.6 60.9C42.1 51.2 49.3 40.9 61 27.2M32.9 60.5C42.6 49.2 51.4 37.1 62.6 26.2M42.6 59.3C48.3 55 54.1 50.5 61.5 39.2M43.3 60.3C51.4 52.1 57.2 42.7 61.4 38.9M52.8 59.6C57.2 57.3 59.9 53.8 62.9 50.2M53.5 60.4C56.2 57.9 58.4 53.4 61.9 49.8M2 25.8C2.6 15.6 7.1 8.3 12.1 -1.4M0.5 24.4C3.6 15.5 8.6 6.6 10.8 0.7M-0.1 35.4C7.6 26.7 12.3 13.2 23.1 1.3M-1.1 37.4C6.4 25.8 14.4 12.2 22 -1M-0.7 50.7C12.4 33.1 21 16.3 31 -1.8M0.4 48C10.6 34 19.3 19.8 31.8 0.8M1.9 61.9C14.2 37.5 28.8 18.7 41.6 0.2M1.4 61.1C16.7 36.9 31.1 14.9 43.5 0.8M11.7 59.5C19.6 46.6 27.3 36.6 52.9 -1.1M11.2 59.5C22.5 43.7 33.3 29.3 53.9 0M22.1 61.6C36.6 38.5 50.7 16.9 61.5 3.3M22.9 60.3C36.1 40 51.2 20 62.5 1.2M33.2 59.1C40.2 44 50.3 31.9 63.6 13.2M31.7 60.6C44.9 43 55.7 23.9 61.6 13.4M44.8 61.8C49.4 52.1 52.9 41.8 63.2 27.2M44 59.6C51.4 46.5 57.9 33.8 61.3 26M52.9 61C55.7 53.1 58.8 42 61.5 40.1M52.3 61.1C54.5 55.4 56 51.3 61.8 39.1" />
</pattern>
<pattern id="cross-hatch" x="0" y="0" width="60" height="60" patternUnits="userSpaceOnUse">
  <path fill="none" d="M0 0C0 0 0 0 0 0M0 0C0 0 0 0 0 0M1.6 11.6C1.6 7.6 4.1 5 12.1 -0.4M-0.6 12.6C2.6 9.3 5.2 6.4 9.8 -0.5M1 25.7C5.5 18.2 13.6 8.3 21 1.1M0.1 23.6C8.4 15.2 17.1 5.2 21.8 -0.3M0.5 37.1C10.5 25.3 17.9 15.5 30.8 -1.1M0.7 37.8C12.1 24.3 24.4 10.3 31.1 0.8M0.5 48.9C14.4 32.4 26.9 15.2 42.9 1M0.7 48.5C10.1 38.4 18.2 27.7 42.6 -0.8M1.1 62C14.8 44 29.1 27.2 53.1 0.8M1.3 60.6C14.2 47 26.9 31 53.2 -0.7M11.4 61.8C26.5 42.7 45.2 23.8 62.2 2.2M10.4 59.3C27.3 41.2 43.4 23.3 60.9 1.4M22.6 61.3C33.4 44.1 47.4 29.6 60.8 15.9M20.9 59.4C32.9 47.9 42.9 34.1 61.5 14.4M31.5 58.4C42.1 46.5 53.7 37.4 62.2 27.1M33.4 59.6C40.5 50 50.5 41.8 62.6 26M43.1 61.9C52.3 52.3 57.7 41.3 63.1 37.8M43.5 60.3C50.5 52.6 56.5 43.4 62.8 39M54.2 60.1C57.2 57.3 59.6 52.7 63.3 49.5M52.8 60.5C55.2 57.7 56.9 55.7 61.9 49.7M-0.3 59.8C-0.3 59.8 -0.3 59.8 -0.3 59.8M-0.3 59.8C-0.3 59.8 -0.3 59.8 -0.3 59.8M12.8 59.7C6.7 56.7 2.5 51 -1.1 48M13.2 60.8C9.9 57.2 5.6 54.2 -0.4 50M25.7 60.9C18.7 54.1 12.5 47.9 -1.7 37.2M24.5 60.9C16.1 53.8 8 47.3 -1.3 38.6M38.5 58.3C21.6 49.1 10.2 36.4 -0.1 27.1M37 60.5C26.4 50.5 16.4 43.1 0.8 28.6M46.9 60.6C35.9 47 24.5 35.6 0.1 17.2M48.4 60.2C34.6 49 22 37.7 0.9 16.9M62.1 60C43 43.1 24.6 30.2 1.1 7.1M60.8 60.3C45 46.8 29.3 34.2 1.2 6.4M60.7 50.5C40.3 31.4 19.3 12.8 0.9 -3.7M59.7 49.2C42.2 33.2 26.3 17.9 1.1 -2M58.8 36.5C47 29.3 36.4 18.2 11.9 -2.8M61.1 39.4C46.3 24.3 31.1 12.5 14.3 -2.8M60 28.1C48.8 18.2 34 4.2 24.6 -1.7M59.9 28.4C47.6 17.8 37.2 8 25.4 -3M61.7 16.9C52.5 9.4 45.2 6.3 38.4 -2.2M61.2 16.8C56.2 14 51.2 8.7 39.2 -1.8M60.5 6.6C56 4.6 55 0.6 51.3 -0.7M60.6 6.6C58.8 4.8 55.7 2.7 50.8 -1.3" />
</pattern>
<pattern id="dashed" x="0" y="0" width="60" height="60" patternUnits="userSpaceOnUse">
  <path fill="none" d="M1.7 7.3C3.2 5.4 4.8 4 5.8 2.8M2 7C3.2 4.9 5 3.2 5.9 2.4M1.4 16.3C3.4 15.2 4.7 14.1 5.9 12.1M1.9 16C3.1 15.3 4 13.6 5.5 11.5M9.3 7C11 6.5 11.5 4.6 13.9 2.5M9.9 7.2C11 5.4 12.7 3.7 13.9 2.6M2.4 25.5C3.5 23.1 5 20.9 6.4 20M2.1 24.9C3 23.9 4 22.4 5.9 20.3M9.5 16.3C10.8 14.5 11.7 14 13.8 11.1M9.9 15.8C10.8 15.1 11.7 13.7 14.2 11.3M17.3 7.3C18.6 5.8 20.1 4.3 21.8 2.8M17.8 6.9C19.7 5.3 20.9 3.1 21.6 2.2M1.9 34C2.4 33.8 3.7 32.5 6.1 29.5M2.2 34.4C3.5 32.5 5 30.7 6.1 29.8M9.9 25.7C10.8 24.3 12.8 22.6 13.6 20.6M10.2 25.1C10.5 24.1 11.3 23.4 14.1 20.6M18.3 16.2C19.3 15.1 19.7 13.5 22.3 12.1M17.6 15.8C18.7 14.8 20.1 13.9 21.8 11.5M25.8 7.5C26.4 5.2 28.1 4.5 29.1 2.7M25.9 6.8C26.8 6.2 27.6 4.6 29.8 2.6M2.2 43.7C3.4 41.4 5 40.9 5.7 38.8M1.9 43.6C3.6 41.7 5.1 40 5.9 39M9.9 34.8C11.8 33.2 13.4 31.3 13.2 29.9M9.7 34.5C11.3 32.9 12.5 31.5 13.5 29.8M17.8 25.2C19.5 23.6 20.7 22.5 21.5 20.5M17.9 25.5C18.9 24.1 19.9 22.9 21.4 21.1M25.6 15.8C26.7 15 27.2 14.8 29.6 11.7M25.5 16C26.4 14.8 28 13.9 29.4 11.9M33.4 7.3C34.3 6.2 35.6 5.4 37.6 3.2M33.3 7.1C34.1 6 35.1 5 37.5 2.8M2.2 52.4C3.7 50.9 4.2 50.3 6.7 47.6M2.4 52.2C3.5 50.7 4.9 49 6.1 47.5M10.6 43.6C11.1 41.9 13.4 39.6 13.9 38.6M9.9 43.1C11.8 41.6 13.5 39.8 14.2 38.9M18.3 33.6C19.6 33.2 20.2 30.9 21.4 30.2M18 33.9C19.3 32.8 21 30.7 22.2 29.8M26 25.1C27.4 24.4 27.9 23.2 29.3 21M25.6 25C27.3 23.3 28.9 22 29.8 20.7M34 16C35.3 13.8 36.7 12.9 37.6 11.3M33.5 16C35.1 14.2 36.9 12.4 37.4 11.7M41.9 7.4C43.1 5.9 43.7 4.1 45.8 2.4M41.7 7C43.3 5.5 44.4 3.4 45.3 2.7M6.8 55.2C8.7 54.3 9.5 53.2 11.8 50.5M7.5 55.2C8.3 54.1 9.6 52.9 11.5 50.7M15.8 46C16.3 45.4 17.5 42.9 18.8 42.3M15.6 46.3C17 45.1 18.3 43.1 19.4 42M22.7 36.8C24.6 35.6 25.1 34.6 26.7 32.6M23 37.2C24.1 36.1 25.2 35.1 26.8 33.1M31.3 28.2C31.9 27.4 33.4 25.1 35.2 23.2M31 28.6C31.7 27.3 32.9 26.7 34.9 23.8M39.5 19.6C39.9 16.9 41.7 15.4 42.6 15M38.8 19.1C39.6 18.6 40.6 17.6 43 14.9M47.3 10.6C48.7 8.3 50 7.1 51.1 5.2M46.9 10C47.7 9.1 48.7 7.9 50.5 5.9M14.2 57.2C16.3 55.5 17.3 52.9 17.9 52.2M14 56.6C14.9 55.9 16.2 54.7 18.4 52M22.4 47.3C22.6 47.1 23.7 46.4 25.5 43.3M22.3 47.6C22.9 46.7 23.8 45.9 26 42.9M29.8 38.5C31.3 37.8 32.8 36.4 34.5 34.7M29.8 38.9C31.6 37.2 32.7 35.2 33.9 34.1M37.5 29.3C39.4 27.8 40.4 26.7 41.4 25.1M38 29.5C38.5 28.3 39.8 27.8 42.1 24.9M45.5 20.4C46.6 19.8 47.8 18.5 49.2 16.1M45.9 20.3C46.9 18.7 48.6 17.2 49.6 16.3M53.8 11.8C54.4 10.5 55.4 9.9 57.2 6.5M53.7 11.3C54.4 10.4 55.3 9.2 57.8 7.2M22 56.9C24.1 54.8 24.8 53.6 25.4 52.3M22.1 57C23.6 55.1 25.2 53.5 26.2 52.6M29.8 48C30.8 46.4 32.4 44.9 33.4 43.1M29.6 47.8C30.9 46.6 32.1 44.9 34.2 43.1M37.4 38.9C39 36.9 40.3 36.3 41.8 34.2M38 38.9C38.8 38 39.5 36.5 41.9 34.5M46.1 29.7C46.6 28.3 48.3 26.9 49.2 25.1M45.6 29.6C46.7 28.2 48.2 27.1 49.8 25.5M53.5 20.4C54.3 20 55.2 18.6 58 15.7M53.7 20.7C54.8 19.1 56 18 57.2 16.5M29.9 57.2C31.1 55.9 31.5 55 34.5 51.9M30.3 57C31.5 55.3 33.2 53.2 34.2 51.9M37.9 47.8C39.1 46.5 40.2 45.8 41.8 43.2M38.1 47.6C38.7 46.5 39.8 46.1 42.1 43.1M45.9 38.4C46.5 37 47.4 36.6 49.4 34.1M46 38.6C47.3 36.8 49.3 34.9 49.9 34M53.3 29.5C54.4 29 56.4 26.9 58.1 25M53.8 29.4C54.7 28.3 56 26.9 57.8 24.8M38.1 56.7C39 55.2 41.1 53.4 41.7 51.7M38.3 56.4C39.1 55 40.2 54.3 42.4 52M46 47.5C47.7 46 48.7 44.8 50.5 42.7M46.2 47.7C47.3 46.2 48.3 45 49.9 42.7M53.6 38.8C55.2 37.6 56.2 35.1 58.1 34.3M53.8 38.2C55.6 36.6 56.9 34.9 57.9 33.9M45.7 57C47.4 55.5 48.1 53.8 50.1 52.1M46.4 56.8C47.6 55.1 48.3 54 50.3 52M54.3 48C55.3 45.9 57.5 43.8 58.3 42.8M54.1 47.7C55.4 46 57 44.1 57.8 43M53.8 56.6C55.8 55.8 56.1 53.9 58.4 52.8M53.7 56.8C55.5 55.5 56.6 53.5 58.1 52.3" />
</pattern>
</svg>