<svg class="patterns-container" xmlns="http://www.w3.org/2000/svg">
  <pattern id="hachure" x="0" y="0" width="60" height="60" patternUnits="userSpaceOnUse">
  <path style="stroke-opacity: 0.7; stroke-width: 0.4; fill: none;" d="M60 60C60 60 60 60 60 60M60 60C60 60 60 60 60 60M59.4 49.7C57.1 53.7 55 58.6 54.1 59.4M59.6 49.9C58.9 52.7 57.4 55.5 53.6 60.7M60.4 39.1C56.9 47 48.9 54.9 46.5 58.6M60.6 39.5C56.6 46.5 53.1 52.1 48.1 60.2M59 30.4C52.8 42 47.9 52 42.4 58.9M59.7 29.8C52.9 41 47 52.9 42 60.7M59 21.7C56.5 26.7 52 36 35 59.9M60 19.4C52.8 35 42.9 49.3 35.7 59.6M61.4 11.7C52.9 21.6 49.3 30.5 33.1 60.5M59 9.4C53.3 21.4 45.2 33.9 32 58.9M61.9 -1.7C51.5 14.3 46 23.6 24.5 58.5M59.4 -0.5C53.1 13.5 46.4 24.7 26.4 59.8M55.1 -0.6C41.2 21.2 29.8 43.7 18.4 60.4M55.4 -2.3C46.6 14.8 34.7 33 19.4 59.6M48.8 -2.3C38.3 15.4 28.9 36.3 12.7 58.3M49.1 -3C39.9 14.8 29 33.3 13.4 59.1M42.3 -0.5C36.2 13.9 24.4 30 7.7 60.4M44.4 -2.8C32.1 19.4 19.5 39 8.8 60.5M40 -1.5C26.9 18.6 12.5 41.4 2.5 59.8M37.3 -1.7C31.1 10 23.6 23.8 2.6 59.9M32.4 -2.2C20.4 21.5 6.7 44.9 -2.9 57.3M31.9 -2.8C22.1 15.9 11.4 35.4 -2.2 58.8M25.1 -2C19 13.3 9.6 27.8 -2.5 46.4M27 -3.8C16 16 3.5 35.6 -3 48M22.9 -4.2C16.2 9.9 9.6 19.9 -0.9 39.2M21.4 -3.2C15.5 7.3 10.5 16.7 -2.1 39M14.3 -3.5C11.6 5.9 8.1 8.6 -2.3 28.5M15 -3.5C7.9 10.1 1.4 20.5 -2.7 27.6M10.2 -0.9C3.7 6.1 -0.9 12.7 -2.9 18.5M9.2 -1.6C4.6 4.7 1.5 12.1 -3 19.1M4.7 -1.4C1.9 -1.3 1.9 3.3 -3.1 7.9M3.4 -1.9C1 0.9 -0.6 5.1 -2.9 8.4" />
</pattern>
<pattern id="zigzag" x="0" y="0" width="60" height="60" patternUnits="userSpaceOnUse">
  <path style="stroke-opacity: 0.7; stroke-width: 0.4; fill: none;" d="M0 0C0 0 0 0 0 0M0 0C0 0 0 0 0 0M-0.6 11.1C3.6 6.5 7.5 4 10.5 1.3M0.5 12.2C2 8.4 5.6 6 10.9 -0.7M0.6 25.8C7.5 14.7 18.8 6.7 22.9 -0.7M1.1 23.2C7.7 16.7 15 8.3 21.4 0.1M-0.7 37C13.2 21.6 24.6 7 31.7 -0.1M-0.1 37.3C11.4 23.3 23.1 11 31.3 0.7M-0.9 50.5C12.1 35.5 21.8 23.5 43.9 -0.1M0.3 49.8C11.2 34.9 22.5 21.5 41.6 -0.1M0.1 59.7C14.3 45.9 28.2 26.3 53.7 -1.6M1.1 59.3C22.2 36.1 42.3 12.6 54 -0.7M11 58.6C28.6 39.4 46.7 19.5 61 0.6M10.8 59.5C28.1 40.9 47 20.9 61.5 2.8M22.4 60C28.6 51 39.5 43.3 60.6 15.8M21.7 59.2C30.9 47.8 40.9 37.7 61.7 14.4M31.5 61.6C39.8 51.8 47.3 43.9 63.4 25.1M33 60.4C42.4 48.4 54.1 34.8 62.7 26.4M43.6 61.7C49.3 51.9 54.1 46.1 62.8 39M42.3 59.2C47.2 53.7 53.4 49.8 61.8 37.4M52.8 60.5C56.8 57.1 60.2 53.8 62.3 51.4M53.3 60.6C56.7 56.9 60.3 53.2 62.3 49.9M-0.1 24.1C4.9 19.5 4.6 12.6 9.5 -1.1M-0.5 24.9C4.2 14.9 8.4 6.6 9.7 0.9M-1 35.7C5.8 23.9 13.6 12.1 21.9 -1.1M-0.7 36.1C5.5 27.3 10.2 17.8 21.1 -0.8M-0.4 47.9C12.2 33.1 22.3 16.5 33.5 -0.7M-0.5 49.1C9.8 34.3 18.3 21.4 31.7 0.9M-0.5 60.1C15.4 43 26.1 20.5 43.2 1.7M0.8 59.4C10 47.1 20.3 34.3 42.2 -0.5M9.6 61.3C26.4 36.3 46.6 12.2 54.3 1.2M10.6 60.4C20.5 47.6 28.9 35 53.8 -0.2M21.8 61.5C31.8 46 43.3 28.9 62.5 3.1M22.7 60.7C35.2 42.5 46.7 24.2 60.9 1.4M34.2 59.9C41.9 46.4 53 32.6 62.4 13.8M33.4 59.3C38.8 48.8 46.3 39.7 61.1 14M44.8 58.8C49.3 50.4 55.1 40.3 61.6 27.5M42.3 60.4C46.9 52 50.5 45.2 61.3 25.5M52.4 58.8C55.7 56.2 59 48.3 64 36.5M53.4 61.2C57.2 53.3 60.4 45 61.9 37.2" />
</pattern>
<pattern id="cross-hatch" x="0" y="0" width="60" height="60" patternUnits="userSpaceOnUse">
  <path style="stroke-opacity: 0.7; stroke-width: 0.4; fill: none;" d="M0 0C0 0 0 0 0 0M0 0C0 0 0 0 0 0M1.5 10.8C3.4 9.3 6.5 2.7 11.6 -0.4M0.7 12.1C3.6 7.8 8.2 2.7 11.3 0.4M1.9 25.5C5.7 14 15.4 7.1 20.6 -0.2M1.1 23.5C4.3 19.3 8 13.8 21.1 -0.3M1.5 36.6C4.9 28.6 12.5 22.9 32.1 -1.3M-1 36.4C7 26.8 17.2 18.2 32 0.5M1.3 48.9C10 39.1 18.4 29.9 40.9 -0.7M-0.9 48.5C13.6 34.8 25.8 19.8 42 -0.7M-1.3 60.4C13.8 44.3 26 33.9 52.5 0.8M0.8 59.7C17.8 41 35.2 20.8 52.3 -0.2M12 59.9C26 42.9 45.7 23.7 63.3 0.1M10.6 60.2C23.5 45.8 35.9 31.7 62.3 1.4M22.1 61.6C36.8 44.9 47.3 30.5 62.6 13.1M21.2 60.9C31 49.3 39.8 39 61.9 14.1M32.6 60.5C42.8 48.3 56.4 34.2 60.7 25.3M32.7 59.3C39.6 53.4 44.8 46.1 62.9 25.5M43.4 58.1C48.7 52.1 58.2 45.4 62 36.6M42.6 60.9C46.8 55.2 53.4 49.2 63.1 38.7M52.2 60.9C54.3 58.8 59 56.8 63.5 49.4M52.8 60.6C55.7 58 59 54.7 61.7 50.8M-0.3 59.8C-0.3 59.8 -0.3 59.8 -0.3 59.8M-0.3 59.8C-0.3 59.8 -0.3 59.8 -0.3 59.8M12 59C7.7 56.2 5.7 54.4 -1.3 50.1M12.3 59.8C9.7 57.1 5.4 53.1 -1.1 49.5M26.2 60.9C16.7 55.2 8 47.6 1.3 38M24.7 60C15.3 51.8 5.9 45.3 0.3 37.8M36.4 58.3C23.9 47.3 9.1 35.8 0.3 27.9M37.1 60.6C26.4 51.8 15 41.4 0.9 28.8M48.9 60C36.7 48.4 26.3 39.7 1.3 19.3M49 60.8C33.4 45.6 18.8 33.5 0.5 17.8M59.6 61.6C41.2 42.7 24.6 30.4 -1 9.1M60.9 60.4C39 40.4 17.2 21.7 1.2 7.9M61.9 48.5C46.8 35.5 32.5 24.7 2 -1.5M61.4 49.4C43.2 35.3 26 19.6 1.5 -1.8M61.7 36.8C43.3 21.8 23.4 7.4 14.8 -2.5M60.5 39.4C47.6 27.5 33.6 14 14.1 -1.4M62 25.9C54.3 20.6 45 15.4 24 -2.4M60.7 27.6C46.5 15.1 34 4.5 25.2 -2.4M59.8 15.7C52.9 12.6 47 2.4 39.7 -2.6M59.6 16.7C53.2 10.5 45.4 3.7 37.8 -2.6M60.7 7.9C57.8 3.1 53.9 0.4 50 -2.7M61 6.7C57 4.4 54.6 0.6 50.9 -2.2" />
</pattern>
<pattern id="dashed" x="0" y="0" width="60" height="60" patternUnits="userSpaceOnUse">
  <path style="stroke-opacity: 0.7; stroke-width: 0.4; fill: none;" d="M2.4 7.2C2.8 4.9 4.6 4.1 6 2.6M1.9 6.8C3 6 3.9 4.8 5.6 2.5M2 16.3C2.9 15.4 3.2 13.9 5.9 12.1M2.1 16.4C3.2 14.9 4.3 13.4 5.9 11.9M9.4 6.8C10.8 5.8 12 4.7 13.8 2.4M9.6 6.9C11.3 5.6 12.4 3.9 13.4 2.5M1.9 24.5C3.5 23.9 3.5 23 5.8 20.6M1.9 25.1C3.5 23.8 4.9 22.3 6 20.6M10.4 15.9C11.3 14.8 12 13 13.6 11M10.2 15.9C10.9 14.8 11.7 13.7 13.9 11.4M18.4 7.2C18.7 6.2 20.5 4.5 21.3 2.4M18 6.7C18.5 5.6 19.5 5 21.6 2.3M2.4 34.1C3.4 32.2 4.7 30.8 5.8 29.5M1.9 34C3.2 33.5 3.6 32.3 5.9 29.9M10.5 25.2C11.9 23.5 13.2 22.4 13.3 20.8M10 25.3C11.1 23.7 12.3 21.8 13.7 20.9M17.3 16.2C18.8 15.3 19.7 13.8 21.7 11.7M17.7 16.3C19.1 14.7 20.5 12.9 21.9 11.5M26.2 7.4C26.5 6 28 3.7 30.1 2M25.4 7.1C26.9 5.6 28.2 4.4 29.4 2.4M1.7 43.9C3.3 42.3 3.9 41 5.7 38.4M1.9 43.5C2.9 42.4 4.5 40.5 6.1 39.1M9.7 34.3C10.8 33.9 11.2 32.1 13.8 30.3M9.8 34.4C10.7 33.4 11.8 32.4 14 29.9M17.2 25.3C18.8 23.7 19.9 22.9 22 20.5M17.7 25.4C18.9 23.9 20.3 22.3 21.8 20.9M25.7 16.3C27.4 14.3 28.3 12.4 29.4 11.9M25.6 16.2C26.6 14.9 27.8 13.3 29.4 11.5M33.4 7.1C34.1 6.7 34.9 5.7 37 2.8M33.6 7.4C34.6 5.6 36 4.3 37.7 2.5M1.9 52.9C3.5 51.4 5 49.3 6.2 48M2.5 52.1C3.3 50.9 5 49.2 5.9 47.7M10 42.7C12.2 41.4 13.3 39.6 14.3 38.4M10.4 43.2C11.5 41.4 12.7 40.3 14.3 38.9M18.5 34.3C19.5 32.6 20.5 30.5 21.9 29.8M18 34C19.2 32.4 20.5 30.9 22.1 30M26.4 25.3C26.3 24.4 27.7 23.7 29.4 21M25.7 25.2C26.8 23.7 28.1 23 29.7 20.4M33.9 16.4C34.8 14.2 37 13.1 37.4 11.5M34 16.2C34.9 14.5 35.9 13.6 37.5 11.6M41.4 7C42.2 5.1 43.5 4.7 45.3 2.7M41.4 7C42.4 6 44 4.4 45.6 2.6M7.9 54.9C9.1 54.2 9.6 51.8 11.5 51.4M7.6 55.5C8.4 54.5 9.3 53.2 11.1 51.2M15.8 45.9C16.5 44.3 18.7 43 18.6 42.1M15 46.6C16.6 44.9 18.2 43 18.9 41.9M23.3 37C24.4 35.7 25.7 33.8 26.7 32.7M23 37.5C24.1 36.4 25 35.1 27 33M30.8 28.4C31.8 27.8 32.5 25.9 35.6 23.5M31.1 28.2C32 27.1 33.3 25.5 34.8 23.5M38.6 19C39.8 17.2 41.5 16.7 43.3 14.2M39 19C40.1 18.3 40.9 17.2 42.7 14.9M46.3 9.7C48 8.5 49.5 7 50.1 5.4M46.7 10C47.9 8.8 48.8 8.1 50.9 5.7M13.8 56.7C15.5 54.9 16.5 54 18.4 52M14.4 56.5C15.1 56.1 15.8 54.8 18 52.5M22.5 48.3C23.8 46 24.2 45.2 26.3 42.9M21.9 47.9C22.8 46.9 24.1 45.5 26.1 43.1M29.6 38.1C30.5 37.7 32.7 35.6 34.2 33.7M29.9 38.4C31.5 37 33.3 35.4 34 34.3M37.7 29.7C38.9 28 40.2 27.3 41.9 25.6M37.8 29.4C38.8 28.3 39.9 27.2 41.5 25M45.4 20.2C46.9 19.6 48.5 17.3 49.7 15.5M46 20.5C46.7 19.4 47.4 18.7 49.8 16M53.2 11.2C54.8 9.8 56.5 8.3 57 6.4M53.5 11.4C55 9.9 56.9 8.2 57.7 6.8M22.3 57.3C24 55.6 25.4 52.8 26.3 52.8M21.8 57C23.6 55.5 24.9 53.9 25.7 52.5M29.9 47.8C30.7 46.1 31.8 45.5 33.4 43.8M29.9 48.2C30.9 46.9 31.9 45.8 33.9 43.1M38 38.3C39.2 37.2 40.1 35.8 42.3 34.6M38 38.6C39.1 37.5 40.8 35.8 41.9 34.4M45.1 29.8C46.6 28.5 46.9 28.4 49.2 24.7M45.7 29.5C46.7 28.5 48 27.7 49.8 25M53.8 20.9C55.2 19.7 56.7 17.8 57.6 15.7M53.8 20.5C54.9 19.1 56.7 17.6 57.5 16M30.1 56.4C30.9 55.8 31.9 53.6 34.6 52.1M30.2 57C30.9 55.8 32.5 54.6 34 52.2M38.1 48.2C38.5 47.2 40.2 46 42.6 43.6M38 47.9C39.3 46.4 40.2 45.7 41.8 43.4M46.5 39.1C46.7 38.2 48.1 36.2 49.7 34M46 38.3C47.2 37.7 47.8 36.3 49.8 34.2M53.8 29.8C55.1 28.7 55.6 26.9 58 24.6M53.6 29.8C55.3 28 56.5 26.7 57.7 24.9M37.9 56.4C38.9 54.9 40.3 53.5 42.8 52.2M38.3 56.5C39.5 55.5 40.1 53.9 42.1 52.1M46.7 47.9C47.7 45.8 48.5 44.6 50 43.1M46 47.2C46.7 46.7 47.6 45.6 50.2 43.1M54 38.5C55 37.3 56.8 35.6 57.7 34.4M54.1 38.5C55.1 37.5 55.6 36.4 58.1 33.7M45.6 57C46.7 55.3 47.6 54.8 49.5 52.3M46.2 56.4C47.6 55 48.7 53.7 49.9 51.9M54 47.4C54.9 46.6 55.5 45.7 58.5 43.3M54 47.7C54.9 46.6 56.2 45.4 58 43.1M54.1 57.3C54.9 55.9 56.2 55.1 58.3 52.8M54 57.1C54.4 55.9 55.7 55.2 57.8 52.6" />
</pattern>
</svg>